<?xml version="1.0" encoding="utf-8"?>
<svg xmlns="http://www.w3.org/2000/svg" style="margin: auto; display: block; shape-rendering: auto; background: none;" width="286" height="169" preserveAspectRatio="xMidYMid">
<style type="text/css">
  text {
    text-anchor: middle; font-size: 95px; opacity: 0;
  }
</style>
<g style="transform-origin:143px 84.5px;transform:scale(1)">
<g transform="translate(143,84.5)">
  <g transform="translate(0,0)"><g class="path" style="transform: rotateY(0deg); transform-origin: -103.03px -6.52016px; animation: 1s linear -0.55s infinite normal forwards running flip-h-681c10cb-ff65-4a91-a45c-3f5315b89d73;"><path d="M36.01-36.29L34.58-36.01L34.58-36.01Q33.54-35.72 33.54-35.39L33.54-35.39L33.54-35.39Q33.54-35.05 35.81-34.20L35.81-34.20L35.81-34.20Q38.09-33.34 40.14-31.54L40.14-31.54L40.14-31.54Q42.18-29.73 43.04-27.17L43.04-27.17L43.04-27.17Q44.37-23.27 44.37-18.81L44.37-18.81L44.37-18.81Q44.37-14.35 45.03-11.45L45.03-11.45L45.03-11.45Q45.70-8.55 46.65-7.03L46.65-7.03L46.65-7.03Q48.55-3.80 50.16-3.04L50.16-3.04L50.83-2.66L50.83-2.66Q51.40-2.28 51.40-1.71L51.40-1.71L51.40-1.71Q51.40-0.29 46.74 0.81L46.74 0.81L46.74 0.81Q42.09 1.90 39.52 1.90L39.52 1.90L39.52 1.90Q34.48 1.90 33.11-2.14L33.11-2.14L33.11-2.14Q31.73-6.17 31.73-15.96L31.73-15.96L31.73-21.18L31.73-21.18Q31.73-29.45 26.79-31.73L26.79-31.73L26.79-31.73Q24.89-32.59 22.23-32.59L22.23-32.59L22.14-32.59L22.14-32.59Q21.28-32.59 21.28-34.25L21.28-34.25L21.28-34.25Q21.28-35.91 22.28-37.62L22.28-37.62L22.28-37.62Q23.27-39.33 24.04-39.33L24.04-39.33L24.04-39.33Q27.17-39.33 29.45-40.52L29.45-40.52L29.45-40.52Q31.73-41.70 32.77-43.41L32.77-43.41L32.77-43.41Q34.96-47.02 35.15-49.59L35.15-49.59L35.15-50.83L35.15-50.83Q35.15-54.34 34.01-56.76L34.01-56.76L34.01-56.76Q32.87-59.19 31.16-60.13L31.16-60.13L31.16-60.13Q28.31-61.66 25.37-61.66L25.37-61.66L25.37-61.66Q22.42-61.66 20.52-61.18L20.52-61.18L20.52-61.18Q17.86-60.42 17.86-59.56L17.86-59.56L17.86-59.56Q17.00-47.12 17.00-35.58L17.00-35.58L17.00-35.58Q17.00-24.04 17.34-17.91L17.34-17.91L17.34-17.91Q17.67-11.78 18.00-8.03L18.00-8.03L18.00-8.03Q18.34-4.28 18.34-3.61L18.34-3.61L18.34-3.61Q18.34-2.38 17.67-1.90L17.67-1.90L17.67-1.90Q13.78 1.71 5.42 1.71L5.42 1.71L5.42 1.71Q3.99 1.71 3.99 0.76L3.99 0.76L3.99 0.76Q3.99 0.47 4.28-0.57L4.28-0.57L4.28-0.57Q5.22-2.75 5.65-14.44L5.65-14.44L5.65-14.44Q6.08-26.13 6.08-35.77L6.08-35.77L6.08-35.77Q6.08-45.41 5.70-51.40L5.70-51.40L5.70-51.40Q5.13-60.42 3.80-62.23L3.80-62.23L3.80-62.23Q2.75-63.55 2.75-64.08L2.75-64.08L2.75-64.08Q2.75-64.60 3.80-65.17L3.80-65.17L3.80-65.17Q9.88-68.02 25.84-68.02L25.84-68.02L25.84-68.02Q38.66-68.02 45.03-60.80L45.03-60.80L45.03-60.80Q48.45-56.81 48.45-50.83L48.45-50.83L48.45-50.83Q48.45-47.22 47.02-44.37L47.02-44.37L47.02-44.37Q45.60-41.52 43.51-39.99L43.51-39.99L43.51-39.99Q39.52-36.95 36.01-36.29L36.01-36.29" fill="#51cacc" stroke="none" stroke-width="none" transform="translate(-130.10498046875,26.539830627441408)" style="fill: rgb(81, 202, 204);"></path></g><g class="path" style="transform: rotateY(0deg); transform-origin: -60.655px 5.68983px; animation: 1s linear -0.44s infinite normal forwards running flip-h-681c10cb-ff65-4a91-a45c-3f5315b89d73;"><path d="M84.74-28.50L84.74-28.50L84.55-16.34L84.55-16.34Q84.55-3.71 87.31-1.14L87.31-1.14L87.31-1.14Q87.69-0.76 87.69-0.29L87.69-0.29L87.69-0.29Q87.69 1.14 81.56 1.14L81.56 1.14L81.56 1.14Q75.43 1.14 75.05-2.47L75.05-2.47L75.05-2.47Q74.96-3.33 74.96-5.99L74.96-5.99L75.34-21.18L75.34-21.18Q75.34-21.85 74.58-21.85L74.58-21.85L74.58-21.85Q70.02-21.85 66.03-19.29L66.03-19.29L66.03-19.29Q62.04-16.72 62.04-12.73L62.04-12.73L62.04-12.73Q62.04-10.64 63.18-9.21L63.18-9.21L63.18-9.21Q64.31-7.79 65.98-7.79L65.98-7.79L65.98-7.79Q67.64-7.79 68.73-8.46L68.73-8.46L68.73-8.46Q69.83-9.12 70.02-9.21L70.02-9.21L70.02-9.21Q71.63-9.03 71.63-5.84L71.63-5.84L71.63-5.84Q71.63-2.66 68.69-0.71L68.69-0.71L68.69-0.71Q65.74 1.24 62.51 1.24L62.51 1.24L62.51 1.24Q59.28 1.24 56.95 0.10L56.95 0.10L56.95 0.10Q54.63-1.04 53.58-2.47L53.58-2.47L53.58-2.47Q52.54-3.90 51.87-5.70L51.87-5.70L51.87-5.70Q51.21-7.88 51.21-9.50L51.21-9.50L51.21-9.50Q51.21-16.15 55.39-20.14L55.39-20.14L55.39-20.14Q59.57-24.13 66.12-25.84L66.12-25.84L66.12-25.84Q74.77-27.55 75.15-28.98L75.15-28.98L75.15-28.98Q75.43-30.02 75.43-32.49L75.43-32.49L75.43-32.49Q75.43-37.52 70.30-37.52L70.30-37.52L70.30-37.52Q68.12-37.52 66.41-36.15L66.41-36.15L66.41-36.15Q64.70-34.77 64.70-32.68L64.70-32.68L65.27-30.40L65.27-30.40Q65.08-28.79 61.85-28.50L61.85-28.50L60.80-28.41L60.80-28.41Q57.95-28.41 56.29-29.83L56.29-29.83L56.29-29.83Q54.63-31.25 54.63-33.63L54.63-33.63L54.63-33.63Q54.63-35.15 55.62-37.00L55.62-37.00L55.62-37.00Q56.62-38.86 58.14-39.99L58.14-39.99L58.14-39.99Q59.66-41.13 62.84-42.04L62.84-42.04L62.84-42.04Q66.03-42.94 68.97-42.94L68.97-42.94L68.97-42.94Q71.92-42.94 73.53-42.75L73.53-42.75L73.53-42.75Q75.15-42.56 77.95-41.85L77.95-41.85L77.95-41.85Q80.75-41.13 82.60-39.14L82.60-39.14L82.60-39.14Q84.46-37.15 84.60-34.91L84.60-34.91L84.60-34.91Q84.74-32.68 84.74-28.50" fill="#51cacc" stroke="none" stroke-width="none" transform="translate(-130.10498046875,26.539830627441408)" style="fill: rgb(157, 248, 113);"></path></g><g class="path" style="transform: rotateY(0deg); transform-origin: -22.185px 5.77983px; animation: 1s linear -0.33s infinite normal forwards running flip-h-681c10cb-ff65-4a91-a45c-3f5315b89d73;"><path d="M90.53 0.67L90.53 0.67L90.53 0.67Q92.25-9.60 92.25-23.94L92.25-23.94L92.25-23.94Q92.25-38.29 91.39-42.56L91.39-42.56L91.39-42.56Q91.39-43.80 94.24-43.80L94.24-43.80L94.24-43.80Q98.61-43.80 100.03-40.47L100.03-40.47L100.03-40.47Q100.13-40.19 100.51-40.19L100.51-40.19L100.51-40.19Q100.89-40.19 101.08-40.38L101.08-40.38L101.08-40.38Q104.03-43.41 110.20-43.41L110.20-43.41L110.20-43.41Q116.38-43.41 119.98-40.28L119.98-40.28L119.98-40.28Q123.59-37.15 123.59-31.16L123.59-31.16L123.59-31.16Q123.59-27.55 122.98-20.90L122.98-20.90L122.98-20.90Q122.36-14.25 122.36-11.02L122.36-11.02L122.36-11.02Q122.36-3.33 124.93 0.10L124.93 0.10L124.93 0.10Q125.31 0.57 125.31 1.04L125.31 1.04L125.31 1.04Q125.31 2.28 122.65 2.28L122.65 2.28L122.65 2.28Q110.87 2.28 110.87-8.17L110.87-8.17L110.87-8.17Q110.87-12.16 112.67-19.29L112.67-19.29L112.67-19.29Q114.47-26.41 114.47-30.12L114.47-30.12L114.47-30.12Q114.47-37.72 108.20-37.72L108.20-37.72L108.20-37.72Q105.17-37.72 103.60-35.91L103.60-35.91L103.60-35.91Q102.03-34.10 101.84-31.78L101.84-31.78L101.84-31.78Q101.65-29.45 101.65-22.99L101.65-22.99L101.65-22.99Q101.65-13.11 102.31-5.79L102.31-5.79L102.50-3.71L102.50-3.71Q102.50-1.04 99.04 0.43L99.04 0.43L99.04 0.43Q95.57 1.90 93.05 1.90L93.05 1.90L93.05 1.90Q90.53 1.90 90.53 0.67" fill="#51cacc" stroke="none" stroke-width="none" transform="translate(-130.10498046875,26.539830627441408)" style="fill: rgb(224, 255, 119);"></path></g><g class="path" style="transform: rotateY(0deg); transform-origin: 15.535px -5.90517px; animation: 1s linear -0.22s infinite normal forwards running flip-h-681c10cb-ff65-4a91-a45c-3f5315b89d73;"><path d="M147.44-42.66L147.44-42.66L147.44-42.66Q149.15-42.66 150.53-42.23L150.53-42.23L150.53-42.23Q151.91-41.80 152-41.80L152-41.80L152.57-42.27L152.19-52.63L152.19-52.63Q152-55.29 151.05-57.19L151.05-57.19L151.05-57.19Q150.10-59.09 149.34-59.66L149.34-59.66L148.49-60.13L148.49-60.13Q147.91-60.52 147.91-60.99L147.91-60.99L147.91-60.99Q147.91-62.41 152.33-64.31L152.33-64.31L152.33-64.31Q156.75-66.22 159.22-66.22L159.22-66.22L159.22-66.22Q161.69-66.22 161.88-65.17L161.88-65.17L161.88-65.17Q162.36-61.94 162.36-52.87L162.36-52.87L162.36-52.87Q162.36-43.80 161.93-35.05L161.93-35.05L161.93-35.05Q161.50-26.32 161.50-15.25L161.50-15.25L161.50-15.25Q161.50-4.18 162.93-1.33L162.93-1.33L162.93-1.33Q163.31-0.67 163.31-0.10L163.31-0.10L163.31-0.10Q163.31 1.33 159.22 1.33L159.22 1.33L159.22 1.33Q151.43 1.33 151.43-2.38L151.43-2.38L151.43-2.38Q151.24-3.90 151.24-7.08L151.24-7.08L151.24-7.08Q151.24-10.26 151.86-18.95L151.86-18.95L151.86-18.95Q152.47-27.64 152.47-32.35L152.47-32.35L152.47-32.35Q152.47-37.05 147.77-37.05L147.77-37.05L147.77-37.05Q143.07-37.05 140.60-31.54L140.60-31.54L140.60-31.54Q138.13-26.03 138.13-20.52L138.13-20.52L138.13-20.52Q138.13-8.84 144.02-8.84L144.02-8.84L144.02-8.84Q144.88-8.84 145.68-9.17L145.68-9.17L145.68-9.17Q146.49-9.50 146.68-9.50L146.68-9.50L146.68-9.50Q147.44-9.50 147.87-8.55L147.87-8.55L147.87-8.55Q148.30-7.60 148.30-6.65L148.30-6.65L148.30-6.65Q148.30-3.42 145.73-1.19L145.73-1.19L145.73-1.19Q143.16 1.04 139.46 1.04L139.46 1.04L139.46 1.04Q133.76 1.04 130.86-3.94L130.86-3.94L130.86-3.94Q127.97-8.93 127.97-16.34L127.97-16.34L127.97-16.34Q127.97-25.75 132.43-33.82L132.43-33.82L132.43-33.82Q134.71-37.81 138.61-40.23L138.61-40.23L138.61-40.23Q142.50-42.66 147.44-42.66" fill="#51cacc" stroke="none" stroke-width="none" transform="translate(-130.10498046875,26.539830627441408)" style="fill: rgb(222, 157, 214);"></path></g><g class="path" style="transform: rotateY(0deg); transform-origin: 54.815px 6.01983px; animation: 1s linear -0.11s infinite normal forwards running flip-h-681c10cb-ff65-4a91-a45c-3f5315b89d73;"><path d="M176.89-35.81L176.89-35.81L176.89-35.81Q174.42-35.72 173.33-35.67L173.33-35.67L173.33-35.67Q172.24-35.63 172.24-36.20L172.24-36.20L172.24-36.20Q172.24-36.77 172.81-37.34L172.81-37.34L172.81-37.34Q178.89-42.94 193.33-42.94L193.33-42.94L193.33-42.94Q198.27-42.94 201.12-42.09L201.12-42.09L202.07-41.80L202.07-41.80Q203.21-41.33 203.21-40.76L203.21-40.76L203.21-40.76Q203.21-40.28 202.54-39.99L202.54-39.99L202.54-39.99Q199.98-39.23 197.60-37.57L197.60-37.57L197.60-37.57Q195.23-35.91 195.23-35.24L195.23-35.24L195.80-34.58L195.80-34.58Q198.84-32.87 200.50-29.16L200.50-29.16L200.50-29.16Q202.16-25.46 202.35-22.61L202.35-22.61L202.54-19.66L202.54-19.66Q202.54-10.26 197.32-4.18L197.32-4.18L197.32-4.18Q192.09 1.90 183.07 1.90L183.07 1.90L183.07 1.90Q178.51 1.90 175.18 0.29L175.18 0.29L175.18 0.29Q171.86-1.33 170.29-3.37L170.29-3.37L170.29-3.37Q168.72-5.42 167.77-7.98L167.77-7.98L167.77-7.98Q166.63-11.50 166.63-15.25L166.63-15.25L166.63-15.25Q166.63-19 167.91-22.80L167.91-22.80L167.91-22.80Q169.20-26.60 170.86-28.41L170.86-28.41L170.86-28.41Q172.52-30.21 174.61-31.35L174.61-31.35L174.61-31.35Q177.27-32.77 178.89-32.77L178.89-32.77L178.89-32.77Q180.50-32.77 180.50-32.11L180.50-32.11L179.93-31.16L179.93-31.16Q177.84-28.69 176.94-24.70L176.94-24.70L176.94-24.70Q176.04-20.71 176.04-17.62L176.04-17.62L176.04-17.62Q176.04-14.54 176.80-11.50L176.80-11.50L176.80-11.50Q177.56-8.46 178.51-6.98L178.51-6.98L178.51-6.98Q179.46-5.51 180.69-4.75L180.69-4.75L180.69-4.75Q182.50-3.61 184.49-3.61L184.49-3.61L184.49-3.61Q186.49-3.61 188.39-5.18L188.39-5.18L188.39-5.18Q190.29-6.75 191.14-9.31L191.14-9.31L191.14-9.31Q192.85-14.06 192.85-19.09L192.85-19.09L192.85-19.09Q192.85-27.07 188.81-31.45L188.81-31.45L188.81-31.45Q184.78-35.81 176.89-35.81" fill="#51cacc" stroke="none" stroke-width="none" transform="translate(-130.10498046875,26.539830627441408)" style="fill: rgb(255, 112, 142);"></path></g><g class="path" style="transform: rotateY(0deg); transform-origin: 105.115px 5.82983px; animation: 1s linear 0s infinite normal forwards running flip-h-681c10cb-ff65-4a91-a45c-3f5315b89d73;"><path d="M228.95 0.57L228.95 0.57L228.95 0.57Q230.28-6.08 230.28-18.10L230.28-18.10L230.28-18.10Q230.28-30.12 230.19-32.30L230.19-32.30L230.19-32.30Q230.09-34.48 228.86-35.81L228.86-35.81L228.86-35.81Q227.62-37.15 226.72-37.34L226.72-37.34L226.72-37.34Q225.82-37.52 224.20-37.52L224.20-37.52L224.20-37.52Q222.59-37.52 221.07-36.05L221.07-36.05L221.07-36.05Q219.55-34.58 219.26-33.06L219.26-33.06L218.88-31.54L218.88-31.54Q218.60-28.69 218.60-18.91L218.60-18.91L218.60-18.91Q218.60-9.12 219.02-6.60L219.02-6.60L219.02-6.60Q219.45-4.08 219.45-3.23L219.45-3.23L219.45-3.23Q219.45-2.38 218.69-1.52L218.69-1.52L218.69-1.52Q215.46 1.90 209.57 1.90L209.57 1.90L209.57 1.90Q207.48 1.90 207.48 0.67L207.48 0.67L207.48 0.67Q209.38-10.73 209.38-28.41L209.38-28.41L209.38-28.41Q209.38-34.96 209.10-37.24L209.10-37.24L208.72-40.28L208.72-40.28Q208.62-41.33 208.34-42.56L208.34-42.56L208.34-42.56Q208.34-43.70 211.28-43.70L211.28-43.70L211.28-43.70Q215.65-43.70 217.08-40.47L217.08-40.47L217.08-40.47Q217.17-40.09 217.46-40.09L217.46-40.09L217.46-40.09Q217.74-40.09 218.79-40.85L218.79-40.85L218.79-40.85Q221.92-43.32 227.24-43.32L227.24-43.32L227.24-43.32Q230.28-43.32 233.23-42.18L233.23-42.18L233.23-42.18Q236.17-41.04 237.31-39.14L237.31-39.14L237.31-39.14Q237.41-38.95 237.60-38.95L237.60-38.95L237.60-38.95Q237.79-38.95 238.17-39.33L238.17-39.33L238.17-39.33Q242.16-43.32 248.52-43.32L248.52-43.32L248.52-43.32Q256.98-43.32 260.11-37.24L260.11-37.24L260.11-37.24Q261.25-34.87 261.25-31.25L261.25-31.25L261.25-31.25Q261.25-27.64 260.68-21.00L260.68-21.00L260.68-21.00Q260.11-14.35 260.11-10.83L260.11-10.83L260.11-10.83Q260.11-7.32 260.82-4.46L260.82-4.46L260.82-4.46Q261.54-1.61 262.25-0.38L262.25-0.38L262.25-0.38Q262.96 0.85 262.96 1.04L262.96 1.04L262.96 1.04Q262.96 2.28 260.30 2.28L260.30 2.28L260.30 2.28Q253.75 2.28 251.18-0.38L251.18-0.38L251.18-0.38Q248.62-3.04 248.62-7.36L248.62-7.36L248.62-7.36Q248.62-11.69 250.37-19.05L250.37-19.05L250.37-19.05Q252.13-26.41 252.13-30.12L252.13-30.12L252.13-30.12Q252.13-37.62 246.05-37.62L246.05-37.62L246.05-37.62Q243.49-37.62 241.97-36.10L241.97-36.10L241.97-36.10Q240.45-34.58 240.16-33.06L240.16-33.06L239.97-31.54L239.97-31.54Q239.59-27.17 239.59-21.00L239.59-21.00L239.59-21.00Q239.59-14.82 239.78-11.35L239.78-11.35L239.78-11.35Q239.97-7.88 240.16-5.94L240.16-5.94L240.16-5.94Q240.35-3.99 240.35-3.61L240.35-3.61L240.35-3.61Q240.35-0.95 237.03 0.47L237.03 0.47L237.03 0.47Q233.70 1.90 230.57 1.90L230.57 1.90L230.57 1.90Q228.95 1.90 228.95 0.57" fill="#51cacc" stroke="none" stroke-width="none" transform="translate(-130.10498046875,26.539830627441408)" style="fill: rgb(81, 202, 204);"></path></g></g>
</g>
</g>
<style id="flip-h-681c10cb-ff65-4a91-a45c-3f5315b89d73" data-anikit="">@keyframes flip-h-681c10cb-ff65-4a91-a45c-3f5315b89d73
{
  0% {
    animation-timing-function: cubic-bezier(0.1909,0.4373,0.4509,0.7454);
    transform: rotateY(0deg);
  }
  30% {
    animation-timing-function: cubic-bezier(0.128,0.2315,0.9704,0.8632);
    transform: rotateY(153.72deg);
  }
  50% {
    animation-timing-function: cubic-bezier(0.5788,0.3001,0.5613,0.6784);
    transform: rotateY(180deg);
  }
  55% {
    animation-timing-function: cubic-bezier(0.1545,0.4929,0.6089,0.9373);
    transform: rotateY(238.68deg);
  }
  100% {
    transform: rotateY(360deg);
  }
}</style></svg>