<?xml version="1.0" encoding="utf-8"?><svg xml:space="preserve" viewBox="0 0 100 100" y="0" x="0" xmlns="http://www.w3.org/2000/svg" id="圖層_1" version="1.1" width="180px" height="180px" xmlns:xlink="http://www.w3.org/1999/xlink" style="width:100%;height:100%;background-size:initial;background-repeat-y:initial;background-repeat-x:initial;background-position-y:initial;background-position-x:initial;background-origin:initial;background-color:initial;background-clip:initial;background-attachment:initial;animation-play-state:paused" ><g class="ldl-scale" style="transform-origin:50% 50%;transform:rotate(0deg) scale(1, 1);animation-play-state:paused" ><path d="M56.5 33.3l-2.7-4.5H13.2l10.7 18.5 2.7-4.6-5.4-9.4z" fill="#666" style="fill:rgb(50, 202, 254);animation-play-state:paused" ></path>
<path d="M50 83.3L32.3 52.7l-2.6 4.6L50 92.5 60.7 74l-5.3-.1z" fill="#666" style="fill:rgb(50, 202, 254);animation-play-state:paused" ></path>
<path d="M65.4 28.7l2.6 4.6h10.8L61.2 64h5.3l20.3-35.2z" fill="#666" style="fill:rgb(50, 202, 254);animation-play-state:paused" ></path>
<path d="M33.5 36L13.2 71.2l21.4.1-2.6-4.6H21.2L38.8 36z" fill="#333" style="fill:rgb(237, 180, 38);animation-play-state:paused" ></path>
<path d="M76.1 52.7l-2.7 4.6 5.4 9.4H43.5l2.7 4.5h40.6z" fill="#333" style="fill:rgb(237, 180, 38);animation-play-state:paused" ></path>
<path d="M50 16.7l17.7 30.6 2.6-4.6L50 7.5 39.3 26l5.3.1z" fill="#333" style="fill:rgb(237, 180, 38);animation-play-state:paused" ></path>
<metadata xmlns:d="https://loading.io/stock/" style="animation-play-state:paused" ><d:name style="animation-play-state:paused" >hexagram</d:name>
<d:tags style="animation-play-state:paused" >star of david,star,bright,christmas,hexagram,astrology</d:tags>
<d:license style="animation-play-state:paused" >pro</d:license>
<d:slug style="animation-play-state:paused" >f5eull</d:slug></metadata></g><!-- generated by https://loading.io/ --></svg>