<svg version="1.1" xmlns="http://www.w3.org/2000/svg" height="1024" width="1024" viewBox="0 0 1024 1024" fill="yellow"><path d="M511.3 63.2c-248 0-449 201-449 449s201 449 449 449 449-201 449-449-201-449-449-449z m0 880.6C273 943.8 79.8 750.6 79.8 512.2S273 80.7 511.3 80.7s431.5 193.2 431.5 431.5-193.1 431.6-431.5 431.6z"></path><path d="M885 296.9l-249-0.2-124.6-216-124.6 215.8-249.1-0.2 124.6 216-124.6 216H387l124.3 215.5 124.4-215.5H885L760.4 512.5 885 296.9z m-32.2 413.2H625.7L512.3 906.5 399 710.1H171.9l113.6-196.9-113.6-196.7 227 0.2L512.3 120l113.6 196.8 226.9 0.2-113.5 196.5 113.5 196.6z"></path><path d="M375 314.8l-102.1 178 12.5 20.5L399.2 316z m274.9 1.2l102 178-12.5 19.3L626 316.6z m-240 415.5l205.1-0.6 10.5-20.5-227 0.1z"></path><path d="M377.8 711.8L273 531.4l12.4-19.3 113.6 198z m269.6-0.4l104.5-179.5-12.5-19.2-113.9 197.7zM410.3 295.8l205.1 0.6 10.5 20.4-227-0.1z"></path></svg>