<?xml version="1.0" encoding="utf-8"?>
<svg xmlns="http://www.w3.org/2000/svg" style="margin: auto; display: block; shape-rendering: auto; background: none;" width="286" height="169" preserveAspectRatio="xMidYMid">
<style type="text/css">
  text {
    text-anchor: middle; font-size: 95px; opacity: 0;
  }
</style>
<g style="transform-origin: 143px 84.5px; transform: scale(1.1875);">
<g transform="translate(143,84.5)">
  <g transform="translate(0,0)"><g class="path" style="transform: matrix(0.01, 0, 0, 0.01, 0, 0); transform-origin: -86.76px -5.49094px; animation: 1s linear 0s 1 normal forwards running bounce-in-7b1f7b9b-26ce-4c60-accd-97ad7469c13e;"><path d="M30.32-30.56L29.12-30.32L29.12-30.32Q28.24-30.08 28.24-29.80L28.24-29.80L28.24-29.80Q28.24-29.52 30.16-28.80L30.16-28.80L30.16-28.80Q32.08-28.08 33.80-26.56L33.80-26.56L33.80-26.56Q35.52-25.04 36.24-22.88L36.24-22.88L36.24-22.88Q37.36-19.60 37.36-15.84L37.36-15.84L37.36-15.84Q37.36-12.08 37.92-9.64L37.92-9.64L37.92-9.64Q38.48-7.20 39.28-5.92L39.28-5.92L39.28-5.92Q40.88-3.20 42.24-2.56L42.24-2.56L42.80-2.24L42.80-2.24Q43.28-1.92 43.28-1.44L43.28-1.44L43.28-1.44Q43.28-0.24 39.36 0.68L39.36 0.68L39.36 0.68Q35.44 1.60 33.28 1.60L33.28 1.60L33.28 1.60Q29.04 1.60 27.88-1.80L27.88-1.80L27.88-1.80Q26.72-5.20 26.72-13.44L26.72-13.44L26.72-17.84L26.72-17.84Q26.72-24.80 22.56-26.72L22.56-26.72L22.56-26.72Q20.96-27.44 18.72-27.44L18.72-27.44L18.64-27.44L18.64-27.44Q17.92-27.44 17.92-28.84L17.92-28.84L17.92-28.84Q17.92-30.24 18.76-31.68L18.76-31.68L18.76-31.68Q19.60-33.12 20.24-33.12L20.24-33.12L20.24-33.12Q22.88-33.12 24.80-34.12L24.80-34.12L24.80-34.12Q26.72-35.12 27.60-36.56L27.60-36.56L27.60-36.56Q29.44-39.60 29.60-41.76L29.60-41.76L29.60-42.80L29.60-42.80Q29.60-45.76 28.64-47.80L28.64-47.80L28.64-47.80Q27.68-49.84 26.24-50.64L26.24-50.64L26.24-50.64Q23.84-51.92 21.36-51.92L21.36-51.92L21.36-51.92Q18.88-51.92 17.28-51.52L17.28-51.52L17.28-51.52Q15.04-50.88 15.04-50.16L15.04-50.16L15.04-50.16Q14.32-39.68 14.32-29.96L14.32-29.96L14.32-29.96Q14.32-20.24 14.60-15.08L14.60-15.08L14.60-15.08Q14.88-9.92 15.16-6.76L15.16-6.76L15.16-6.76Q15.44-3.60 15.44-3.04L15.44-3.04L15.44-3.04Q15.44-2 14.88-1.60L14.88-1.60L14.88-1.60Q11.60 1.44 4.56 1.44L4.56 1.44L4.56 1.44Q3.36 1.44 3.36 0.64L3.36 0.64L3.36 0.64Q3.36 0.40 3.60-0.48L3.60-0.48L3.60-0.48Q4.40-2.32 4.76-12.16L4.76-12.16L4.76-12.16Q5.12-22 5.12-30.12L5.12-30.12L5.12-30.12Q5.12-38.24 4.80-43.28L4.80-43.28L4.80-43.28Q4.32-50.88 3.20-52.40L3.20-52.40L3.20-52.40Q2.32-53.52 2.32-53.96L2.32-53.96L2.32-53.96Q2.32-54.40 3.20-54.88L3.20-54.88L3.20-54.88Q8.32-57.28 21.76-57.28L21.76-57.28L21.76-57.28Q32.56-57.28 37.92-51.20L37.92-51.20L37.92-51.20Q40.80-47.84 40.80-42.80L40.80-42.80L40.80-42.80Q40.80-39.76 39.60-37.36L39.60-37.36L39.60-37.36Q38.40-34.96 36.64-33.68L36.64-33.68L36.64-33.68Q33.28-31.12 30.32-30.56L30.32-30.56" fill="#51cacc" stroke="none" stroke-width="none" transform="translate(-109.55999183654785,22.349064559936522)" style="fill: rgb(81, 202, 204);"></path></g><g class="path" style="transform: matrix(0.01, 0, 0, 0.01, 0, 0); transform-origin: -51.08px 4.78906px; animation: 1s linear 0.11s 1 normal forwards running bounce-in-7b1f7b9b-26ce-4c60-accd-97ad7469c13e;"><path d="M71.36-24L71.36-24L71.20-13.76L71.20-13.76Q71.20-3.12 73.52-0.96L73.52-0.96L73.52-0.96Q73.84-0.64 73.84-0.24L73.84-0.24L73.84-0.24Q73.84 0.96 68.68 0.96L68.68 0.96L68.68 0.96Q63.52 0.96 63.20-2.08L63.20-2.08L63.20-2.08Q63.12-2.80 63.12-5.04L63.12-5.04L63.44-17.84L63.44-17.84Q63.44-18.40 62.80-18.40L62.80-18.40L62.80-18.40Q58.96-18.40 55.60-16.24L55.60-16.24L55.60-16.24Q52.24-14.08 52.24-10.72L52.24-10.72L52.24-10.72Q52.24-8.96 53.20-7.76L53.20-7.76L53.20-7.76Q54.16-6.56 55.56-6.56L55.56-6.56L55.56-6.56Q56.96-6.56 57.88-7.12L57.88-7.12L57.88-7.12Q58.80-7.68 58.96-7.76L58.96-7.76L58.96-7.76Q60.32-7.60 60.32-4.92L60.32-4.92L60.32-4.92Q60.32-2.24 57.84-0.60L57.84-0.60L57.84-0.60Q55.36 1.04 52.64 1.04L52.64 1.04L52.64 1.04Q49.92 1.04 47.96 0.08L47.96 0.08L47.96 0.08Q46-0.88 45.12-2.08L45.12-2.08L45.12-2.08Q44.24-3.28 43.68-4.80L43.68-4.80L43.68-4.80Q43.12-6.64 43.12-8L43.12-8L43.12-8Q43.12-13.60 46.64-16.96L46.64-16.96L46.64-16.96Q50.16-20.32 55.68-21.76L55.68-21.76L55.68-21.76Q62.96-23.20 63.28-24.40L63.28-24.40L63.28-24.40Q63.52-25.28 63.52-27.36L63.52-27.36L63.52-27.36Q63.52-31.60 59.20-31.60L59.20-31.60L59.20-31.60Q57.36-31.60 55.92-30.44L55.92-30.44L55.92-30.44Q54.48-29.28 54.48-27.52L54.48-27.52L54.96-25.60L54.96-25.60Q54.80-24.24 52.08-24L52.08-24L51.20-23.92L51.20-23.92Q48.80-23.92 47.40-25.12L47.40-25.12L47.40-25.12Q46-26.32 46-28.32L46-28.32L46-28.32Q46-29.60 46.84-31.16L46.84-31.16L46.84-31.16Q47.68-32.72 48.96-33.68L48.96-33.68L48.96-33.68Q50.24-34.64 52.92-35.40L52.92-35.40L52.92-35.40Q55.60-36.16 58.08-36.16L58.08-36.16L58.08-36.16Q60.56-36.16 61.92-36L61.92-36L61.92-36Q63.28-35.84 65.64-35.24L65.64-35.24L65.64-35.24Q68-34.64 69.56-32.96L69.56-32.96L69.56-32.96Q71.12-31.28 71.24-29.40L71.24-29.40L71.24-29.40Q71.36-27.52 71.36-24" fill="#51cacc" stroke="none" stroke-width="none" transform="translate(-109.55999183654785,22.349064559936522)" style="fill: rgb(157, 248, 113);"></path></g><g class="path" style="transform: matrix(0.01, 0, 0, 0.01, 0, 0); transform-origin: -18.68px 4.86906px; animation: 1s linear 0.22s 1 normal forwards running bounce-in-7b1f7b9b-26ce-4c60-accd-97ad7469c13e;"><path d="M76.24 0.56L76.24 0.56L76.24 0.56Q77.68-8.08 77.68-20.16L77.68-20.16L77.68-20.16Q77.68-32.24 76.96-35.84L76.96-35.84L76.96-35.84Q76.96-36.88 79.36-36.88L79.36-36.88L79.36-36.88Q83.04-36.88 84.24-34.08L84.24-34.08L84.24-34.08Q84.32-33.84 84.64-33.84L84.64-33.84L84.64-33.84Q84.96-33.84 85.12-34L85.12-34L85.12-34Q87.60-36.56 92.80-36.56L92.80-36.56L92.80-36.56Q98-36.56 101.04-33.92L101.04-33.92L101.04-33.92Q104.08-31.28 104.08-26.24L104.08-26.24L104.08-26.24Q104.08-23.20 103.56-17.60L103.56-17.60L103.56-17.60Q103.04-12 103.04-9.28L103.04-9.28L103.04-9.28Q103.04-2.80 105.20 0.08L105.20 0.08L105.20 0.08Q105.52 0.48 105.52 0.88L105.52 0.88L105.52 0.88Q105.52 1.92 103.28 1.92L103.28 1.92L103.28 1.92Q93.36 1.92 93.36-6.88L93.36-6.88L93.36-6.88Q93.36-10.24 94.88-16.24L94.88-16.24L94.88-16.24Q96.40-22.24 96.40-25.36L96.40-25.36L96.40-25.36Q96.40-31.76 91.12-31.76L91.12-31.76L91.12-31.76Q88.56-31.76 87.24-30.24L87.24-30.24L87.24-30.24Q85.92-28.72 85.76-26.76L85.76-26.76L85.76-26.76Q85.60-24.80 85.60-19.36L85.60-19.36L85.60-19.36Q85.60-11.04 86.16-4.88L86.16-4.88L86.32-3.12L86.32-3.12Q86.32-0.88 83.40 0.36L83.40 0.36L83.40 0.36Q80.48 1.60 78.36 1.60L78.36 1.60L78.36 1.60Q76.24 1.60 76.24 0.56" fill="#51cacc" stroke="none" stroke-width="none" transform="translate(-109.55999183654785,22.349064559936522)" style="fill: rgb(224, 255, 119);"></path></g><g class="path" style="transform: matrix(0.01, 0, 0, 0.01, 0, 0); transform-origin: 13.08px -4.97094px; animation: 1s linear 0.33s 1 normal forwards running bounce-in-7b1f7b9b-26ce-4c60-accd-97ad7469c13e;"><path d="M124.16-35.92L124.16-35.92L124.16-35.92Q125.60-35.92 126.76-35.56L126.76-35.56L126.76-35.56Q127.92-35.20 128-35.20L128-35.20L128.48-35.60L128.16-44.32L128.16-44.32Q128-46.56 127.20-48.16L127.20-48.16L127.20-48.16Q126.40-49.76 125.76-50.24L125.76-50.24L125.04-50.64L125.04-50.64Q124.56-50.96 124.56-51.36L124.56-51.36L124.56-51.36Q124.56-52.56 128.28-54.16L128.28-54.16L128.28-54.16Q132-55.76 134.08-55.76L134.08-55.76L134.08-55.76Q136.16-55.76 136.32-54.88L136.32-54.88L136.32-54.88Q136.72-52.16 136.72-44.52L136.72-44.52L136.72-44.52Q136.72-36.88 136.36-29.52L136.36-29.52L136.36-29.52Q136-22.16 136-12.84L136-12.84L136-12.84Q136-3.52 137.20-1.12L137.20-1.12L137.20-1.12Q137.52-0.56 137.52-0.08L137.52-0.08L137.52-0.08Q137.52 1.12 134.08 1.12L134.08 1.12L134.08 1.12Q127.52 1.12 127.52-2L127.52-2L127.52-2Q127.36-3.28 127.36-5.96L127.36-5.96L127.36-5.96Q127.36-8.64 127.88-15.96L127.88-15.96L127.88-15.96Q128.40-23.28 128.40-27.24L128.40-27.24L128.40-27.24Q128.40-31.20 124.44-31.20L124.44-31.20L124.44-31.20Q120.48-31.20 118.40-26.56L118.40-26.56L118.40-26.56Q116.32-21.92 116.32-17.28L116.32-17.28L116.32-17.28Q116.32-7.44 121.28-7.44L121.28-7.44L121.28-7.44Q122-7.44 122.68-7.72L122.68-7.72L122.68-7.72Q123.36-8 123.52-8L123.52-8L123.52-8Q124.16-8 124.52-7.20L124.52-7.20L124.52-7.20Q124.88-6.40 124.88-5.60L124.88-5.60L124.88-5.60Q124.88-2.88 122.72-1L122.72-1L122.72-1Q120.56 0.88 117.44 0.88L117.44 0.88L117.44 0.88Q112.64 0.88 110.20-3.32L110.20-3.32L110.20-3.32Q107.76-7.52 107.76-13.76L107.76-13.76L107.76-13.76Q107.76-21.68 111.52-28.48L111.52-28.48L111.52-28.48Q113.44-31.84 116.72-33.88L116.72-33.88L116.72-33.88Q120-35.92 124.16-35.92" fill="#51cacc" stroke="none" stroke-width="none" transform="translate(-109.55999183654785,22.349064559936522)" style="fill: rgb(222, 157, 214);"></path></g><g class="path" style="transform: matrix(0.01, 0, 0, 0.01, 0, 0); transform-origin: 46.16px 5.06906px; animation: 1s linear 0.44s 1 normal forwards running bounce-in-7b1f7b9b-26ce-4c60-accd-97ad7469c13e;"><path d="M148.96-30.16L148.96-30.16L148.96-30.16Q146.88-30.08 145.96-30.04L145.96-30.04L145.96-30.04Q145.04-30 145.04-30.48L145.04-30.48L145.04-30.48Q145.04-30.96 145.52-31.44L145.52-31.44L145.52-31.44Q150.64-36.16 162.80-36.16L162.80-36.16L162.80-36.16Q166.96-36.16 169.36-35.44L169.36-35.44L170.16-35.20L170.16-35.20Q171.12-34.80 171.12-34.32L171.12-34.32L171.12-34.32Q171.12-33.92 170.56-33.68L170.56-33.68L170.56-33.68Q168.40-33.04 166.40-31.64L166.40-31.64L166.40-31.64Q164.40-30.24 164.40-29.68L164.40-29.68L164.88-29.12L164.88-29.12Q167.44-27.68 168.84-24.56L168.84-24.56L168.84-24.56Q170.24-21.44 170.40-19.04L170.40-19.04L170.56-16.56L170.56-16.56Q170.56-8.64 166.16-3.52L166.16-3.52L166.16-3.52Q161.76 1.60 154.16 1.60L154.16 1.60L154.16 1.60Q150.32 1.60 147.52 0.24L147.52 0.24L147.52 0.24Q144.72-1.12 143.40-2.84L143.40-2.84L143.40-2.84Q142.08-4.56 141.28-6.72L141.28-6.72L141.28-6.72Q140.32-9.68 140.32-12.84L140.32-12.84L140.32-12.84Q140.32-16 141.40-19.20L141.40-19.20L141.40-19.20Q142.48-22.40 143.88-23.92L143.88-23.92L143.88-23.92Q145.28-25.44 147.04-26.40L147.04-26.40L147.04-26.40Q149.28-27.60 150.64-27.60L150.64-27.60L150.64-27.60Q152-27.60 152-27.04L152-27.04L151.52-26.24L151.52-26.24Q149.76-24.16 149-20.80L149-20.80L149-20.80Q148.24-17.44 148.24-14.84L148.24-14.84L148.24-14.84Q148.24-12.24 148.88-9.68L148.88-9.68L148.88-9.68Q149.52-7.12 150.32-5.88L150.32-5.88L150.32-5.88Q151.12-4.64 152.16-4L152.16-4L152.16-4Q153.68-3.04 155.36-3.04L155.36-3.04L155.36-3.04Q157.04-3.04 158.64-4.36L158.64-4.36L158.64-4.36Q160.24-5.68 160.96-7.84L160.96-7.84L160.96-7.84Q162.40-11.84 162.40-16.08L162.40-16.08L162.40-16.08Q162.40-22.80 159-26.48L159-26.48L159-26.48Q155.60-30.16 148.96-30.16" fill="#51cacc" stroke="none" stroke-width="none" transform="translate(-109.55999183654785,22.349064559936522)" style="fill: rgb(255, 112, 142);"></path></g><g class="path" style="transform: matrix(0.01, 0, 0, 0.01, 0, 0); transform-origin: 88.52px 4.90907px; animation: 1s linear 0.55s 1 normal forwards running bounce-in-7b1f7b9b-26ce-4c60-accd-97ad7469c13e;"><path d="M192.80 0.48L192.80 0.48L192.80 0.48Q193.92-5.12 193.92-15.24L193.92-15.24L193.92-15.24Q193.92-25.36 193.84-27.20L193.84-27.20L193.84-27.20Q193.76-29.04 192.72-30.16L192.72-30.16L192.72-30.16Q191.68-31.28 190.92-31.44L190.92-31.44L190.92-31.44Q190.16-31.60 188.80-31.60L188.80-31.60L188.80-31.60Q187.44-31.60 186.16-30.36L186.16-30.36L186.16-30.36Q184.88-29.12 184.64-27.84L184.64-27.84L184.32-26.56L184.32-26.56Q184.08-24.16 184.08-15.92L184.08-15.92L184.08-15.92Q184.08-7.68 184.44-5.56L184.44-5.56L184.44-5.56Q184.80-3.44 184.80-2.72L184.80-2.72L184.80-2.72Q184.80-2 184.16-1.28L184.16-1.28L184.16-1.28Q181.44 1.60 176.48 1.60L176.48 1.60L176.48 1.60Q174.72 1.60 174.72 0.56L174.72 0.56L174.72 0.56Q176.32-9.04 176.32-23.92L176.32-23.92L176.32-23.92Q176.32-29.44 176.08-31.36L176.08-31.36L175.76-33.92L175.76-33.92Q175.68-34.80 175.44-35.84L175.44-35.84L175.44-35.84Q175.44-36.80 177.92-36.80L177.92-36.80L177.92-36.80Q181.60-36.80 182.80-34.08L182.80-34.08L182.80-34.08Q182.88-33.76 183.12-33.76L183.12-33.76L183.12-33.76Q183.36-33.76 184.24-34.40L184.24-34.40L184.24-34.40Q186.88-36.48 191.36-36.48L191.36-36.48L191.36-36.48Q193.92-36.48 196.40-35.52L196.40-35.52L196.40-35.52Q198.88-34.56 199.84-32.96L199.84-32.96L199.84-32.96Q199.92-32.80 200.08-32.80L200.08-32.80L200.08-32.80Q200.24-32.80 200.56-33.12L200.56-33.12L200.56-33.12Q203.92-36.48 209.28-36.48L209.28-36.48L209.28-36.48Q216.40-36.48 219.04-31.36L219.04-31.36L219.04-31.36Q220-29.36 220-26.32L220-26.32L220-26.32Q220-23.28 219.52-17.68L219.52-17.68L219.52-17.68Q219.04-12.08 219.04-9.12L219.04-9.12L219.04-9.12Q219.04-6.16 219.64-3.76L219.64-3.76L219.64-3.76Q220.24-1.36 220.84-0.32L220.84-0.32L220.84-0.32Q221.44 0.72 221.44 0.88L221.44 0.88L221.44 0.88Q221.44 1.92 219.20 1.92L219.20 1.92L219.20 1.92Q213.68 1.92 211.52-0.32L211.52-0.32L211.52-0.32Q209.36-2.56 209.36-6.20L209.36-6.20L209.36-6.20Q209.36-9.84 210.84-16.04L210.84-16.04L210.84-16.04Q212.32-22.24 212.32-25.36L212.32-25.36L212.32-25.36Q212.32-31.68 207.20-31.68L207.20-31.68L207.20-31.68Q205.04-31.68 203.76-30.40L203.76-30.40L203.76-30.40Q202.48-29.12 202.24-27.84L202.24-27.84L202.08-26.56L202.08-26.56Q201.76-22.88 201.76-17.68L201.76-17.68L201.76-17.68Q201.76-12.48 201.92-9.56L201.92-9.56L201.92-9.56Q202.08-6.64 202.24-5L202.24-5L202.24-5Q202.40-3.36 202.40-3.04L202.40-3.04L202.40-3.04Q202.40-0.80 199.60 0.40L199.60 0.40L199.60 0.40Q196.80 1.60 194.16 1.60L194.16 1.60L194.16 1.60Q192.80 1.60 192.80 0.48" fill="#51cacc" stroke="none" stroke-width="none" transform="translate(-109.55999183654785,22.349064559936522)" style="fill: rgb(81, 202, 204);"></path></g></g>
</g>
</g>
<style id="bounce-in-7b1f7b9b-26ce-4c60-accd-97ad7469c13e" data-anikit="">@keyframes bounce-in-7b1f7b9b-26ce-4c60-accd-97ad7469c13e
{
  0% {
    animation-timing-function: cubic-bezier(0.0383,0.3388,0.0421,0.6652);
    transform: matrix(0.01,0,0,0.01,0,0);
    opacity: 1;
  }
  4.7% {
    animation-timing-function: cubic-bezier(0.3296,0.3336,0.5772,0.6672);
    transform: matrix(0.556,0,0,0.556,0,0);
    opacity: 1;
  }
  8.4% {
    animation-timing-function: cubic-bezier(0.0781,0.1617,0.0874,0.9301);
    transform: matrix(0.979,0,0,0.979,0,0);
    opacity: 1;
  }
  12.4% {
    animation-timing-function: cubic-bezier(0.8341,0.1496,0.8634,0.7673);
    transform: matrix(1.153,0,0,1.153,0,0);
    opacity: 1;
  }
  16.3% {
    animation-timing-function: cubic-bezier(0.3264,0.3332,0.5758,0.6695);
    transform: matrix(1.008,0,0,1.008,0,0);
    opacity: 1;
  }
  21.2% {
    animation-timing-function: cubic-bezier(0.0921,0.1883,0.3277,1);
    transform: matrix(0.704,0,0,0.704,0,0);
    opacity: 1;
  }
  24.5% {
    animation-timing-function: cubic-bezier(0.6905,0.0944,0.8759,0.7624);
    transform: matrix(0.626,0,0,0.626,0,0);
    opacity: 1;
  }
  27.7% {
    animation-timing-function: cubic-bezier(0.3688,0.332,0.624,0.6684);
    transform: matrix(0.704,0,0,0.704,0,0);
    opacity: 1;
  }
  32.6% {
    animation-timing-function: cubic-bezier(0.1368,0.2364,0.2451,0.9049);
    transform: matrix(0.958,0,0,0.958,0,0);
    opacity: 1;
  }
  37.4% {
    animation-timing-function: cubic-bezier(0.5936,0.0846,0.3495,1);
    transform: matrix(1.085,0,0,1.085,0,0);
    opacity: 1;
  }
  49.5% {
    animation-timing-function: cubic-bezier(0.5522,0.0981,0.3807,1);
    transform: matrix(0.802,0,0,0.802,0,0);
    opacity: 1;
  }
  62.4% {
    animation-timing-function: cubic-bezier(0.4497,0.1349,0.4911,1);
    transform: matrix(1.044,0,0,1.044,0,0);
    opacity: 1;
  }
  74.1% {
    animation-timing-function: cubic-bezier(0.429,0,0.5239,1);
    transform: matrix(0.914,0,0,0.914,0,0);
    opacity: 1;
  }
  87% {
    animation-timing-function: cubic-bezier(0.3501,0,0.6422,1);
    transform: matrix(1.013,0,0,1.013,0,0);
    opacity: 1;
  }
  95.8% {
    animation-timing-function: cubic-bezier(0.3653,0,0.6776,1);
    transform: matrix(0.992,0,0,0.992,0,0);
    opacity: 1;
  }
  100% {
    transform: matrix(1,0,0,1,0,0);
    opacity: 1;
  }
}</style></svg>