<?xml version="1.0" encoding="utf-8"?>
<svg xmlns="http://www.w3.org/2000/svg" style="margin: auto; display: block; shape-rendering: auto; background: none;" width="215" height="169" preserveAspectRatio="xMidYMid">
<style type="text/css">
  text {
    text-anchor: middle; font-size: 95px; opacity: 0;
  }
</style>
<g style="transform-origin:107.5px 84.5px;transform:scale(1)">
<g transform="translate(107.5,84.5)">
  <g transform="translate(0,0)"><g class="path" style="transform: matrix(0.01, 0, 0, 0.01, 0, 0); transform-origin: -64.41px -6.6696px; animation: 1s linear 0s 1 normal forwards running bounce-in-7b1f7b9b-26ce-4c60-accd-97ad7469c13e;"><path d="M10.26-67.64L10.26-67.64L23.94-66.88L23.94-66.88Q33.06-66.88 37.05-69.06L37.05-69.06L37.05-69.06Q37.62-69.45 38.05-69.45L38.05-69.45L38.05-69.45Q38.48-69.45 38.48-68.11L38.48-68.11L38.48-68.11Q38.48-66.78 36.86-63.74L36.86-63.74L36.86-63.74Q34.48-59.09 30.02-59.09L30.02-59.09L24.80-59.19L24.80-59.19Q24.04-59.19 23.84-58.33L23.84-58.33L23.84-58.33Q23.18-44.37 23.18-28.17L23.18-28.17L23.18-28.17Q23.18-11.97 24.51-3.80L24.51-3.80L24.51-3.33L24.51-3.33Q24.51-0.95 20.00 0.47L20.00 0.47L20.00 0.47Q15.48 1.90 11.50 1.90L11.50 1.90L11.50 1.90Q9.60 1.90 9.60 0.85L9.60 0.85L9.60 0.85Q9.60 0.57 9.88-0.47L9.88-0.47L9.88-0.47Q10.93-2.56 11.73-20.71L11.73-20.71L11.73-20.71Q12.54-38.86 12.54-48.07L12.54-48.07L12.35-58.42L12.35-58.42Q12.35-58.99 11.78-59.09L11.78-59.09L11.78-59.09Q9.79-59.47 7.22-59.47L7.22-59.47L7.22-59.47Q2.09-59.47-0.38-57.38L-0.38-57.38L-0.38-57.38Q-1.04-56.91-1.66-56.91L-1.66-56.91L-1.66-56.91Q-2.28-56.91-2.28-57.66L-2.28-57.66L-2.28-57.66Q-2.28-58.80-1.09-60.80L-1.09-60.80L-1.09-60.80Q0.10-62.80 1.43-64.22L1.43-64.22L1.43-64.22Q4.66-67.64 10.26-67.64" fill="#51cacc" stroke="none" stroke-width="none" transform="translate(-82.51003456115723,27.10539953613282)" style="fill: rgb(81, 202, 204);"></path></g><g class="path" style="transform: matrix(0.01, 0, 0, 0.01, 0, 0); transform-origin: -31.97px 6.2554px; animation: 1s linear 0.132s 1 normal forwards running bounce-in-7b1f7b9b-26ce-4c60-accd-97ad7469c13e;"><path d="M65.84-28.50L65.84-28.50L65.65-16.34L65.65-16.34Q65.65-3.71 68.40-1.14L68.40-1.14L68.40-1.14Q68.78-0.76 68.78-0.29L68.78-0.29L68.78-0.29Q68.78 1.14 62.65 1.14L62.65 1.14L62.65 1.14Q56.53 1.14 56.15-2.47L56.15-2.47L56.15-2.47Q56.05-3.33 56.05-5.99L56.05-5.99L56.43-21.18L56.43-21.18Q56.43-21.85 55.67-21.85L55.67-21.85L55.67-21.85Q51.11-21.85 47.12-19.29L47.12-19.29L47.12-19.29Q43.13-16.72 43.13-12.73L43.13-12.73L43.13-12.73Q43.13-10.64 44.27-9.21L44.27-9.21L44.27-9.21Q45.41-7.79 47.07-7.79L47.07-7.79L47.07-7.79Q48.73-7.79 49.83-8.46L49.83-8.46L49.83-8.46Q50.92-9.12 51.11-9.21L51.11-9.21L51.11-9.21Q52.73-9.03 52.73-5.84L52.73-5.84L52.73-5.84Q52.73-2.66 49.78-0.71L49.78-0.71L49.78-0.71Q46.84 1.24 43.61 1.24L43.61 1.24L43.61 1.24Q40.38 1.24 38.05 0.10L38.05 0.10L38.05 0.10Q35.72-1.04 34.68-2.47L34.68-2.47L34.68-2.47Q33.63-3.90 32.97-5.70L32.97-5.70L32.97-5.70Q32.30-7.88 32.30-9.50L32.30-9.50L32.30-9.50Q32.30-16.15 36.48-20.14L36.48-20.14L36.48-20.14Q40.66-24.13 47.22-25.84L47.22-25.84L47.22-25.84Q55.86-27.55 56.24-28.98L56.24-28.98L56.24-28.98Q56.53-30.02 56.53-32.49L56.53-32.49L56.53-32.49Q56.53-37.52 51.40-37.52L51.40-37.52L51.40-37.52Q49.21-37.52 47.50-36.15L47.50-36.15L47.50-36.15Q45.79-34.77 45.79-32.68L45.79-32.68L46.36-30.40L46.36-30.40Q46.17-28.79 42.94-28.50L42.94-28.50L41.90-28.41L41.90-28.41Q39.05-28.41 37.38-29.83L37.38-29.83L37.38-29.83Q35.72-31.25 35.72-33.63L35.72-33.63L35.72-33.63Q35.72-35.15 36.72-37.00L36.72-37.00L36.72-37.00Q37.72-38.86 39.23-39.99L39.23-39.99L39.23-39.99Q40.76-41.13 43.94-42.04L43.94-42.04L43.94-42.04Q47.12-42.94 50.06-42.94L50.06-42.94L50.06-42.94Q53.01-42.94 54.63-42.75L54.63-42.75L54.63-42.75Q56.24-42.56 59.04-41.85L59.04-41.85L59.04-41.85Q61.84-41.13 63.70-39.14L63.70-39.14L63.70-39.14Q65.55-37.15 65.69-34.91L65.69-34.91L65.69-34.91Q65.84-32.68 65.84-28.50" fill="#51cacc" stroke="none" stroke-width="none" transform="translate(-82.51003456115723,27.10539953613282)" style="fill: rgb(157, 248, 113);"></path></g><g class="path" style="transform: matrix(0.01, 0, 0, 0.01, 0, 0); transform-origin: 3.84497px 6.2504px; animation: 1s linear 0.264s 1 normal forwards running bounce-in-7b1f7b9b-26ce-4c60-accd-97ad7469c13e;"><path d="M101.08-32.68L100.61-25.46L100.98-22.14L100.98-22.14Q100.98-20.33 97.56-20.33L97.56-20.33L97.56-20.33Q90.63-20.33 90.63-25.55L90.63-25.55L90.63-25.55Q90.63-26.79 91.30-28.98L91.30-28.98L91.30-28.98Q91.96-31.16 91.96-32.77L91.96-32.77L91.96-32.77Q91.96-34.39 91.01-35.58L91.01-35.58L91.01-35.58Q90.06-36.77 88.25-36.77L88.25-36.77L88.25-36.77Q86.45-36.77 85.17-35.48L85.17-35.48L85.17-35.48Q83.89-34.20 83.60-32.87L83.60-32.87L83.22-31.54L83.22-31.54Q82.65-28.59 82.65-21.71L82.65-21.71L82.65-21.71Q82.65-14.82 82.84-10.88L82.84-10.88L82.84-10.88Q83.03-6.94 83.22-5.46L83.22-5.46L83.22-5.46Q83.41-3.99 83.41-3.71L83.41-3.71L83.41-3.71Q83.41-1.33 80.47 0.14L80.47 0.14L80.47 0.14Q77.52 1.61 74.58 1.61L74.58 1.61L74.58 1.61Q71.63 1.61 71.63 0.38L71.63 0.38L72.11-2.56L72.11-2.56Q73.44-10.83 73.44-24.13L73.44-24.13L73.44-24.13Q73.44-37.43 72.48-42.18L72.48-42.18L72.48-42.18Q72.48-43.32 74.48-43.32L74.48-43.32L74.48-43.32Q79.61-43.32 81.32-39.80L81.32-39.80L81.32-39.80Q81.42-39.42 81.65-39.42L81.65-39.42L81.65-39.42Q81.89-39.42 82.94-40.28L82.94-40.28L82.94-40.28Q86.07-42.84 90.34-42.84L90.34-42.84L90.34-42.84Q93.00-42.84 95.67-41.80L95.67-41.80L95.67-41.80Q101.08-39.62 101.08-32.68L101.08-32.68" fill="#51cacc" stroke="none" stroke-width="none" transform="translate(-82.51003456115723,27.10539953613282)" style="fill: rgb(224, 255, 119);"></path></g><g class="path" style="transform: matrix(0.01, 0, 0, 0.01, 0, 0); transform-origin: 37.805px 6.5854px; animation: 1s linear 0.396s 1 normal forwards running bounce-in-7b1f7b9b-26ce-4c60-accd-97ad7469c13e;"><path d="M112.29-35.81L112.29-35.81L112.29-35.81Q109.82-35.72 108.73-35.67L108.73-35.67L108.73-35.67Q107.63-35.63 107.63-36.20L107.63-36.20L107.63-36.20Q107.63-36.77 108.20-37.34L108.20-37.34L108.20-37.34Q114.28-42.94 128.72-42.94L128.72-42.94L128.72-42.94Q133.66-42.94 136.51-42.09L136.51-42.09L137.47-41.80L137.47-41.80Q138.60-41.33 138.60-40.76L138.60-40.76L138.60-40.76Q138.60-40.28 137.94-39.99L137.94-39.99L137.94-39.99Q135.38-39.23 133-37.57L133-37.57L133-37.57Q130.63-35.91 130.63-35.24L130.63-35.24L131.19-34.58L131.19-34.58Q134.23-32.87 135.90-29.16L135.90-29.16L135.90-29.16Q137.56-25.46 137.75-22.61L137.75-22.61L137.94-19.66L137.94-19.66Q137.94-10.26 132.72-4.18L132.72-4.18L132.72-4.18Q127.49 1.90 118.47 1.90L118.47 1.90L118.47 1.90Q113.91 1.90 110.58 0.29L110.58 0.29L110.58 0.29Q107.25-1.33 105.69-3.37L105.69-3.37L105.69-3.37Q104.12-5.42 103.17-7.98L103.17-7.98L103.17-7.98Q102.03-11.50 102.03-15.25L102.03-15.25L102.03-15.25Q102.03-19 103.31-22.80L103.31-22.80L103.31-22.80Q104.59-26.60 106.26-28.41L106.26-28.41L106.26-28.41Q107.92-30.21 110.01-31.35L110.01-31.35L110.01-31.35Q112.67-32.77 114.28-32.77L114.28-32.77L114.28-32.77Q115.90-32.77 115.90-32.11L115.90-32.11L115.33-31.16L115.33-31.16Q113.24-28.69 112.34-24.70L112.34-24.70L112.34-24.70Q111.44-20.71 111.44-17.62L111.44-17.62L111.44-17.62Q111.44-14.54 112.19-11.50L112.19-11.50L112.19-11.50Q112.95-8.46 113.91-6.98L113.91-6.98L113.91-6.98Q114.85-5.51 116.09-4.75L116.09-4.75L116.09-4.75Q117.89-3.61 119.89-3.61L119.89-3.61L119.89-3.61Q121.88-3.61 123.78-5.18L123.78-5.18L123.78-5.18Q125.69-6.75 126.54-9.31L126.54-9.31L126.54-9.31Q128.25-14.06 128.25-19.09L128.25-19.09L128.25-19.09Q128.25-27.07 124.21-31.45L124.21-31.45L124.21-31.45Q120.17-35.81 112.29-35.81" fill="#51cacc" stroke="none" stroke-width="none" transform="translate(-82.51003456115723,27.10539953613282)" style="fill: rgb(222, 157, 214);"></path></g><g class="path" style="transform: matrix(0.01, 0, 0, 0.01, 0, 0); transform-origin: 69.59px 0.550402px; animation: 1s linear 0.528s 1 normal forwards running bounce-in-7b1f7b9b-26ce-4c60-accd-97ad7469c13e;"><path d="M141.46-37.05L141.46-37.05L141.74-40.85L141.74-40.85Q141.84-41.70 143.07-41.70L143.07-41.70L146.40-41.70L146.02-49.30L146.02-49.69L146.02-49.69Q146.02-51.87 149.34-53.87L149.34-53.87L149.34-53.87Q152.66-55.86 155.42-55.86L155.42-55.86L155.42-55.86Q156.28-55.86 156.28-55.10L156.28-55.10L156.28-55.01L156.28-55.01Q155.90-52.44 155.51-41.80L155.51-41.80L155.51-41.80Q159.69-41.80 160.84-41.99L160.84-41.99L160.84-41.99Q161.97-42.18 162.07-42.18L162.07-42.18L162.07-42.18Q162.74-42.18 162.74-41.04L162.74-41.04L162.74-41.04Q162.74-39.90 161.69-38.14L161.69-38.14L161.69-38.14Q160.65-36.38 159.41-36.29L159.41-36.29L155.42-36.29L155.42-36.29Q155.32-33.06 155.32-25.41L155.32-25.41L155.32-25.41Q155.32-17.77 155.47-12.82L155.47-12.82L155.47-12.82Q155.61-7.88 155.80-5.37L155.80-5.37L155.80-5.37Q155.99-2.85 156.23-1.33L156.23-1.33L156.23-1.33Q156.47 0.19 156.61 0.85L156.61 0.85L156.61 0.85Q156.75 1.52 156.75 1.71L156.75 1.71L156.75 1.71Q156.75 2.66 155.51 2.75L155.51 2.75L155.51 2.75Q151.81 2.75 148.15 1.71L148.15 1.71L148.15 1.71Q144.50 0.67 144.50-1.90L144.50-1.90L144.50-1.90Q146.49-17.86 146.49-36.20L146.49-36.20L146.49-36.20Q143.93-36.20 142.59-36.01L142.59-36.01L142.50-36.01L142.50-36.01Q141.65-36.01 141.46-37.05" fill="#51cacc" stroke="none" stroke-width="none" transform="translate(-82.51003456115723,27.10539953613282)" style="fill: rgb(255, 112, 142);"></path></g></g>
</g>
</g>
<style id="bounce-in-7b1f7b9b-26ce-4c60-accd-97ad7469c13e" data-anikit="">@keyframes bounce-in-7b1f7b9b-26ce-4c60-accd-97ad7469c13e
{
  0% {
    animation-timing-function: cubic-bezier(0.0383,0.3388,0.0421,0.6652);
    transform: matrix(0.01,0,0,0.01,0,0);
    opacity: 1;
  }
  4.7% {
    animation-timing-function: cubic-bezier(0.3296,0.3336,0.5772,0.6672);
    transform: matrix(0.556,0,0,0.556,0,0);
    opacity: 1;
  }
  8.4% {
    animation-timing-function: cubic-bezier(0.0781,0.1617,0.0874,0.9301);
    transform: matrix(0.979,0,0,0.979,0,0);
    opacity: 1;
  }
  12.4% {
    animation-timing-function: cubic-bezier(0.8341,0.1496,0.8634,0.7673);
    transform: matrix(1.153,0,0,1.153,0,0);
    opacity: 1;
  }
  16.3% {
    animation-timing-function: cubic-bezier(0.3264,0.3332,0.5758,0.6695);
    transform: matrix(1.008,0,0,1.008,0,0);
    opacity: 1;
  }
  21.2% {
    animation-timing-function: cubic-bezier(0.0921,0.1883,0.3277,1);
    transform: matrix(0.704,0,0,0.704,0,0);
    opacity: 1;
  }
  24.5% {
    animation-timing-function: cubic-bezier(0.6905,0.0944,0.8759,0.7624);
    transform: matrix(0.626,0,0,0.626,0,0);
    opacity: 1;
  }
  27.7% {
    animation-timing-function: cubic-bezier(0.3688,0.332,0.624,0.6684);
    transform: matrix(0.704,0,0,0.704,0,0);
    opacity: 1;
  }
  32.6% {
    animation-timing-function: cubic-bezier(0.1368,0.2364,0.2451,0.9049);
    transform: matrix(0.958,0,0,0.958,0,0);
    opacity: 1;
  }
  37.4% {
    animation-timing-function: cubic-bezier(0.5936,0.0846,0.3495,1);
    transform: matrix(1.085,0,0,1.085,0,0);
    opacity: 1;
  }
  49.5% {
    animation-timing-function: cubic-bezier(0.5522,0.0981,0.3807,1);
    transform: matrix(0.802,0,0,0.802,0,0);
    opacity: 1;
  }
  62.4% {
    animation-timing-function: cubic-bezier(0.4497,0.1349,0.4911,1);
    transform: matrix(1.044,0,0,1.044,0,0);
    opacity: 1;
  }
  74.1% {
    animation-timing-function: cubic-bezier(0.429,0,0.5239,1);
    transform: matrix(0.914,0,0,0.914,0,0);
    opacity: 1;
  }
  87% {
    animation-timing-function: cubic-bezier(0.3501,0,0.6422,1);
    transform: matrix(1.013,0,0,1.013,0,0);
    opacity: 1;
  }
  95.8% {
    animation-timing-function: cubic-bezier(0.3653,0,0.6776,1);
    transform: matrix(0.992,0,0,0.992,0,0);
    opacity: 1;
  }
  100% {
    transform: matrix(1,0,0,1,0,0);
    opacity: 1;
  }
}</style></svg>